# xmcd
#
# Track frame offsets: 
#        182
#        12917
#        27040
#        42940
#        55145
#        65650
#        83655
#        101800
#        118527
#        138270
#        156122
#        170257
#
# Disc length: 2464 seconds
#
# Revision: 2
# Processed by: cddbd v1.5.1PL2 Copyright (c) Steve Scherf et al.
# Submitted via: ExactAudioCopy v0.95a5
#
DISCID=92099e0c
DTITLE=Various Artist - Classic Country Volume 2
DYEAR=1900
DGENRE=Country
TTITLE0=Linda Ronstadt - Love Is A Rose
TTITLE1=Glen Cambell - Wichita Lineman
TTITLE2=Johnny Lee - Lookin' For Love
TTITLE3=Merle Haggard - Okie From Muskogee
TTITLE4=Eric Weissberg and Steve Mandell - Dueling Banjos
TTITLE5=Emmylou Harris - Sweet Dreams
TTITLE6=Hank Williams, Jr. - Family Tradition
TTITLE7=John Anderson - I'm Just An Old Chunck Of Coal
TTITLE8=Eddie Rabbit - Suspicions
TTITLE9=Mel Tillis - Blind In Love
TTITLE10=Margo Smith - It Only Hurts For A Little While
TTITLE11=The Bellamy Brothers - If I Said You Had A Beautify Body Woul
TTITLE11=d You Hold It Against Me?
EXTD=
EXTT0=
EXTT1=
EXTT2=
EXTT3=
EXTT4=
EXTT5=
EXTT6=
EXTT7=
EXTT8=
EXTT9=
EXTT10=
EXTT11=
PLAYORDER=
